<svg width="32" height="32" viewBox="0 0 32 32" fill="none" xmlns="http://www.w3.org/2000/svg">
    <g clip-path="url(#clip0_1_821)">
        <path
            d="M15.9999 32C24.8364 32 31.9998 24.8366 31.9998 16.0001C31.9998 7.16363 24.8364 0.000244141 15.9999 0.000244141C7.16339 0.000244141 0 7.16363 0 16.0001C0 24.8366 7.16339 32 15.9999 32Z"
            fill="#415870" />
        <path
            d="M22.1348 19.0008C18.6702 20.7024 14.4788 19.2578 12.8017 15.7732C11.175 12.3932 12.5521 8.28769 15.8885 6.57338C15.9323 6.55088 15.9763 6.52882 16.0203 6.50738C16.3283 6.35719 16.2454 5.89444 15.9046 5.85857C14.2674 5.68613 12.5628 5.9625 10.9785 6.75232C6.61019 8.92994 4.78663 14.2643 6.90794 18.6603C9.07069 23.1421 14.4653 24.9989 18.9246 22.8088C20.4947 22.0376 21.7383 20.868 22.5939 19.4818C22.7759 19.1869 22.4568 18.842 22.1459 18.9953L22.1348 19.0008Z"
            fill="#FEAF62" />
        <path
            d="M13.8052 6.64649C13.8052 7.81874 12.855 8.76893 11.6827 8.76893L5.38794 8.70361C4.8015 8.70361 4.27119 8.9413 3.88719 9.3253C3.50319 9.7093 3.2655 10.2396 3.2655 10.8261C3.2655 11.9983 4.21569 12.9485 5.38794 12.9485H7.80425C8.39069 12.9485 8.921 13.1862 9.305 13.5702C9.689 13.9542 9.92669 14.4844 9.92669 15.0709C9.92669 16.2432 8.9765 17.1934 7.80425 17.1934H0.424685C0.29406 17.1934 0.16606 17.1816 0.0419979 17.1587C0.0139224 16.7732 -2.44662e-05 16.3868 0.00018544 16.0002C0.00018544 11.4785 1.87575 7.39493 4.89225 4.48486L11.6827 4.52405C12.855 4.52405 13.8052 5.47424 13.8052 6.64649ZM32 16.0002C32 18.4322 31.4573 20.7382 30.4862 22.8025C29.9853 22.7615 29.5154 22.5437 29.1605 22.188C28.7765 21.804 28.5388 21.2737 28.5388 20.6872C28.5388 19.515 27.5886 18.5648 26.4164 18.5648H24.0001C23.4136 18.5648 22.8833 18.3271 22.4993 17.9431C22.1153 17.5591 21.8776 17.0289 21.8776 16.4424C21.8776 15.2701 22.8278 14.3199 24.0001 14.3199H26.4164C27.0028 14.3199 27.5331 14.0822 27.9171 13.6982C28.3011 13.3142 28.5388 12.784 28.5388 12.1975C28.5388 11.0252 29.489 10.0751 30.6612 10.0751L30.8676 10.0764C31.5984 11.9089 32 13.9079 32 16.0002Z"
            fill="#62788E" />
        <path
            d="M22.2458 6.86196C22.5523 6.86196 22.8009 6.61342 22.8009 6.30683C22.8009 6.00025 22.5523 5.75171 22.2458 5.75171C21.9392 5.75171 21.6906 6.00025 21.6906 6.30683C21.6906 6.61342 21.9392 6.86196 22.2458 6.86196Z"
            fill="#E8E4DB" />
        <path
            d="M19.7967 11.9877C20.1033 11.9877 20.3519 11.7392 20.3519 11.4326C20.3519 11.126 20.1033 10.8774 19.7967 10.8774C19.4902 10.8774 19.2416 11.126 19.2416 11.4326C19.2416 11.7392 19.4902 11.9877 19.7967 11.9877Z"
            fill="#E8E4DB" />
        <path
            d="M24.0416 26.4523C24.3482 26.4523 24.5967 26.2038 24.5967 25.8972C24.5967 25.5906 24.3482 25.342 24.0416 25.342C23.735 25.342 23.4865 25.5906 23.4865 25.8972C23.4865 26.2038 23.735 26.4523 24.0416 26.4523Z"
            fill="#E8E4DB" />
        <path
            d="M15.7811 3.04165C16.0877 3.04165 16.3362 2.79311 16.3362 2.48652C16.3362 2.17993 16.0877 1.9314 15.7811 1.9314C15.4745 1.9314 15.226 2.17993 15.226 2.48652C15.226 2.79311 15.4745 3.04165 15.7811 3.04165Z"
            fill="#E8E4DB" />
        <path
            d="M14.5077 22.8285C14.8143 22.8285 15.0628 22.58 15.0628 22.2734C15.0628 21.9668 14.8143 21.7183 14.5077 21.7183C14.2011 21.7183 13.9526 21.9668 13.9526 22.2734C13.9526 22.58 14.2011 22.8285 14.5077 22.8285Z"
            fill="#E8E4DB" />
        <path
            d="M6.51556 23.9706C6.82215 23.9706 7.07068 23.7221 7.07068 23.4155C7.07068 23.1089 6.82215 22.8604 6.51556 22.8604C6.20897 22.8604 5.96043 23.1089 5.96043 23.4155C5.96043 23.7221 6.20897 23.9706 6.51556 23.9706Z"
            fill="#E8E4DB" />
        <path
            d="M9.95719 28.5348C10.2638 28.5348 10.5123 28.2863 10.5123 27.9797C10.5123 27.6731 10.2638 27.4246 9.95719 27.4246C9.6506 27.4246 9.40206 27.6731 9.40206 27.9797C9.40206 28.2863 9.6506 28.5348 9.95719 28.5348Z"
            fill="#E8E4DB" />
        <path
            d="M19.7883 21.5851C20.0949 21.5851 20.3434 21.3366 20.3434 21.03C20.3434 20.7234 20.0949 20.4749 19.7883 20.4749C19.4817 20.4749 19.2332 20.7234 19.2332 21.03C19.2332 21.3366 19.4817 21.5851 19.7883 21.5851Z"
            fill="#E8E4DB" />
        <path
            d="M11.006 12.4816C11.3126 12.4816 11.5611 12.2331 11.5611 11.9265C11.5611 11.6199 11.3126 11.3713 11.006 11.3713C10.6994 11.3713 10.4509 11.6199 10.4509 11.9265C10.4509 12.2331 10.6994 12.4816 11.006 12.4816Z"
            fill="#E8E4DB" />
        <path
            d="M26.3599 8.95132C26.9593 8.91113 27.5488 8.7783 28.1075 8.55757C27.5488 8.33691 26.9593 8.20408 26.3599 8.16382C26.3197 7.56446 26.1869 6.97495 25.9662 6.41626C25.7455 6.97497 25.6127 7.56447 25.5724 8.16382C24.9731 8.20402 24.3836 8.33684 23.8249 8.55757C24.3836 8.77824 24.9731 8.91106 25.5724 8.95132C25.6126 9.55068 25.7455 10.1402 25.9662 10.6989C26.1869 10.1402 26.3197 9.55068 26.3599 8.95132Z"
            fill="#FEAF62" />
    </g>
    <defs>
        <clipPath id="clip0_1_821">
            <rect width="32" height="32" fill="white" />
        </clipPath>
    </defs>
</svg>