<svg xmlns="http://www.w3.org/2000/svg" version="1.1" xmlns:xlink="http://www.w3.org/1999/xlink" xmlns:svgjs="http://svgjs.com/svgjs" width="512" height="512" x="0" y="0" viewBox="0 0 64 64" style="enable-background:new 0 0 512 512" xml:space="preserve" class=""><g><g fill="#ffd747" data-name="Half Moon"><path d="M63.787 47.142a1 1 0 0 0-1.111-.33 33.686 33.686 0 0 1-10.936 1.8c-17.9 0-32.467-13.874-32.467-30.926a29.717 29.717 0 0 1 4.774-16.144A1 1 0 0 0 22.885.054C9.2 4.715 0 17.181 0 31.073 0 49.229 15.462 64 34.467 64a34.63 34.63 0 0 0 29.374-15.7 1 1 0 0 0-.054-1.158z" fill="#ffd747" data-original="#ffd747" class=""></path><path d="M32.5 25.5a4 4 0 0 1 4 4 1 1 0 0 0 2 0 4 4 0 0 1 4-4 1 1 0 0 0 0-2 4 4 0 0 1-4-4 1 1 0 0 0-2 0 4 4 0 0 1-4 4 1 1 0 0 0 0 2zM47 19a4 4 0 0 1 4 4 1 1 0 0 0 2 0 4 4 0 0 1 4-4 1 1 0 0 0 0-2 4 4 0 0 1-4-4 1 1 0 0 0-2 0 4 4 0 0 1-4 4 1 1 0 0 0 0 2zM41 37a1 1 0 0 0 1 1 4 4 0 0 1 4 4 1 1 0 0 0 2 0 4 4 0 0 1 4-4 1 1 0 0 0 0-2 4 4 0 0 1-4-4 1 1 0 0 0-2 0 4 4 0 0 1-4 4 1 1 0 0 0-1 1z" fill="#ffd747" data-original="#ffd747" class=""></path></g></g></svg>