<svg width="32" height="32" viewBox="0 0 32 32" fill="none" xmlns="http://www.w3.org/2000/svg">
<mask id="mask0_1_345" style="mask-type:luminance" maskUnits="userSpaceOnUse" x="0" y="0" width="32" height="32">
<path d="M0 9.34601e-05H31.9999V32H0V9.34601e-05Z" fill="white"/>
</mask>
<g mask="url(#mask0_1_345)">
<path d="M31.9999 16C31.9999 18.545 31.4055 20.9513 30.348 23.0875C30.2024 23.3813 30.0487 23.67 29.8862 23.9538C29.2236 25.1068 28.4204 26.1731 27.4949 27.1281C25.1211 29.5806 21.9693 31.2756 18.4368 31.8156H18.4362C17.6299 31.9385 16.8155 32.0002 16 32C15.9481 32 15.8975 32 15.8456 31.9994H15.845C12.7461 31.97 9.85747 31.0594 7.41804 29.5063C5.9485 28.5701 4.64085 27.4013 3.54624 26.0456C3.19062 25.605 2.85749 25.1456 2.54937 24.6681C0.936248 22.1707 0 19.1944 0 16C0 7.16382 7.16373 9.34601e-05 16 9.34601e-05C22.1712 9.34601e-05 27.5268 3.49446 30.1949 8.61194C30.5287 9.25069 30.8199 9.91506 31.0655 10.6013C31.5829 12.0443 31.8888 13.5545 31.9737 15.085C31.9911 15.3875 31.9999 15.6932 31.9999 16Z" fill="#E3CAA5"/>
<path d="M31.9999 16C31.9999 18.545 31.4055 20.9513 30.348 23.0875C28.0787 27.6731 23.6756 31.015 18.4368 31.8156H18.4362C17.6299 31.9385 16.8155 32.0002 16 32C15.9481 32 15.8975 32 15.8456 31.9994H15.845C12.7461 31.97 9.85747 31.0594 7.41804 29.5063L8.0281 27.2388L3.54624 26.0456C3.19062 25.605 2.85749 25.1456 2.54937 24.6681L6.33248 20.9L1.66875 16.2532L8.0281 14.5594L6.31873 8.20507L12.675 9.91257L14.3681 3.55321L19.0137 8.21758L23.6606 3.55321L25.3537 9.91257L30.1949 8.61195L31.7098 8.20507L31.0655 10.6013L30.0005 14.5594L31.9737 15.0851C31.9911 15.3876 31.9999 15.6932 31.9999 16Z" fill="#F6E7C6"/>
<path d="M30.5549 20.8994C30.5549 21.6475 30.4837 22.3794 30.348 23.0875C28.0787 27.6731 23.6756 31.015 18.4368 31.8156H18.4363C17.63 31.9385 16.8155 32.0002 16 32C15.9481 32 15.8975 32 15.8456 31.9994H15.845C11.0118 30.6225 7.47254 26.1744 7.47254 20.8994C7.47254 14.5251 12.64 9.35819 19.0137 9.35819C25.3874 9.35819 30.5549 14.5251 30.5549 20.8994Z" fill="#F4DD45"/>
<path d="M18.4362 31.8156C17.6299 31.9385 16.8155 32.0002 16 32C15.948 32 15.8968 32 15.8449 31.9994C11.0125 30.6225 7.47311 26.1744 7.47311 20.9C7.47311 14.5257 12.6406 9.35819 19.0136 9.35819C19.5524 9.35819 20.0818 9.39444 20.6012 9.46757C14.9781 10.2401 10.6475 15.0644 10.6475 20.9C10.6475 25.96 13.9036 30.2588 18.4362 31.8156Z" fill="#FBB031"/>
<path d="M10.7905 14.4923H3.44543C2.46405 14.4923 1.6685 15.2879 1.6685 16.2693C1.6685 17.2508 2.46405 18.0464 3.44543 18.0464H10.7905C11.7718 18.0464 12.5675 17.2508 12.5675 16.2693C12.5675 15.2879 11.7718 14.4923 10.7905 14.4923Z" fill="white"/>
<path d="M29.8862 23.9538C29.2236 25.1069 28.4204 26.1732 27.4949 27.1282H21.4444C21.211 27.1285 20.9798 27.0827 20.7642 26.9934C20.5486 26.904 20.3528 26.7729 20.1881 26.6075C20.0227 26.4428 19.8916 26.247 19.8023 26.0314C19.7129 25.8158 19.6671 25.5847 19.6674 25.3513C19.6674 24.3694 20.4631 23.5744 21.4444 23.5744H28.7893C29.203 23.5744 29.5843 23.7157 29.8862 23.9538Z" fill="white"/>
<path d="M14.3196 10.9382H6.97454C5.99311 10.9382 5.19755 11.7338 5.19755 12.7152C5.19755 13.6966 5.99311 14.4922 6.97454 14.4922H14.3196C15.301 14.4922 16.0966 13.6966 16.0966 12.7152C16.0966 11.7338 15.301 10.9382 14.3196 10.9382Z" fill="white"/>
</g>
</svg>
