<svg width="16" height="16" viewBox="0 0 16 16" fill="none" xmlns="http://www.w3.org/2000/svg">
<path opacity="0.4" d="M8 14.6667C11.1922 14.6667 13.78 12.0789 13.78 8.88669C13.78 5.69448 11.1922 3.10669 8 3.10669C4.8078 3.10669 2.22 5.69448 2.22 8.88669C2.22 12.0789 4.8078 14.6667 8 14.6667Z" fill="black"/>
<path d="M8 9.16671C7.72667 9.16671 7.5 8.94004 7.5 8.66671V5.33337C7.5 5.06004 7.72667 4.83337 8 4.83337C8.27333 4.83337 8.5 5.06004 8.5 5.33337V8.66671C8.5 8.94004 8.27333 9.16671 8 9.16671Z" fill="black"/>
<path d="M9.92666 2.30004H6.07333C5.80666 2.30004 5.59333 2.08671 5.59333 1.82004C5.59333 1.55337 5.80666 1.33337 6.07333 1.33337H9.92666C10.1933 1.33337 10.4067 1.54671 10.4067 1.81337C10.4067 2.08004 10.1933 2.30004 9.92666 2.30004Z" fill="black"/>
</svg>
